<?xml version="1.0" encoding="UTF-8"?>
<svg version="1.1" xmlns="http://www.w3.org/2000/svg" width="595" height="842">
<path d="M0 0 C3.61642634 1.84309757 7.14377748 3.82361422 10.66088867 5.84887695 C11.54325195 6.35290039 12.42561523 6.85692383 13.3347168 7.3762207 C18.34942217 10.25062914 23.33787467 13.16596017 28.30932617 16.11450195 C32.61604813 18.6645523 36.95333028 21.14619158 41.32495117 23.58325195 C42.40711914 24.19346191 43.48928711 24.80367187 44.60424805 25.43237305 C46.66833392 26.59460924 48.73961676 27.74418997 50.8190918 28.87866211 C58.44809669 33.21213559 63.83982302 37.83802653 66.23700714 46.53365517 C67.19551154 51.76896291 66.94581941 57.1401439 66.93554688 62.4440918 C66.9398993 63.81966935 66.94508421 65.19524447 66.95103455 66.57081604 C66.96437945 70.29198904 66.96500822 74.0130602 66.96247125 77.73425245 C66.96139838 80.8478799 66.96629302 83.96148701 66.97107667 87.07511008 C66.98215646 94.42484485 66.982618 101.7745285 66.9765625 109.12426758 C66.97052458 116.68999505 66.98283253 124.25553646 67.00413257 131.8212322 C67.02178388 138.33187552 67.02774434 144.84245981 67.02449483 151.35312617 C67.0226873 155.235015 67.02526479 159.11677113 67.03920937 162.99863815 C67.05184061 166.65130902 67.04979403 170.30369121 67.03679848 173.95635796 C67.03332839 175.92384986 67.04457179 177.89135081 67.05636597 179.85881042 C67.00312953 188.88030289 66.30909805 197.16433856 59.66088867 203.84887695 C57.23510742 205.63012695 57.23510742 205.63012695 54.34838867 207.34887695 C53.22432617 208.01918945 52.10026367 208.68950195 50.94213867 209.38012695 C41.89873975 214.6242281 32.78262588 219.74266804 23.66088867 224.84887695 C27.03605286 227.67780503 30.38996595 229.93725269 34.26635742 232.02075195 C35.33305664 232.6034082 36.39975586 233.18606445 37.4987793 233.78637695 C39.710208 234.98299843 41.92371504 236.17578795 44.1394043 237.36450195 C62.96851183 247.6781032 62.96851183 247.6781032 66.03855038 256.28268051 C67.36163289 261.73837828 67.0748593 267.35867802 67.04907227 272.94067383 C67.0531432 274.35743106 67.05848799 275.77418512 67.06500244 277.19093323 C67.07861998 281.0194669 67.07340057 284.84775667 67.06386518 288.67629433 C67.05623961 292.69374852 67.06332222 296.71118263 67.06802368 300.7286377 C67.07347283 307.47367073 67.06631177 314.21860503 67.05200195 320.96362305 C67.03567702 328.74809351 67.04096613 336.53232821 67.05748117 344.31679296 C67.07112008 351.01513348 67.07300397 357.71340325 67.06516516 364.41175318 C67.06050183 368.40592466 67.05982673 372.39998552 67.06977463 376.39414978 C67.07847714 380.15026252 67.07236295 383.90607296 67.05509186 387.66215324 C67.04927001 389.68826259 67.05811445 391.71439768 67.06747437 393.74049377 C67.01217577 401.71214806 66.68626443 408.09057774 61.51635742 414.51293945 C57.8712025 417.49488562 54.03782178 419.85786833 49.97338867 422.22387695 C49.11052246 422.73354004 48.24765625 423.24320313 47.35864258 423.76831055 C44.46515765 425.47189388 41.56396008 427.16168565 38.66088867 428.84887695 C37.6091748 429.46182617 36.55746094 430.07477539 35.47387695 430.70629883 C29.95946508 433.91653592 24.4342843 437.10608795 18.89135742 440.2668457 C15.04367372 442.46292656 11.23530135 444.70384169 7.46166992 447.0246582 C-0.99786675 452.14752314 -8.09184663 456.14619883 -18.33911133 453.84887695 C-23.41271438 451.57450317 -25.31390931 448.9651768 -27.33911133 443.84887695 C-28.33186121 440.62591613 -28.4549552 437.72547491 -28.43676758 434.35903931 C-28.43194115 432.68517403 -28.43194115 432.68517403 -28.42701721 430.97749329 C-28.4144413 429.14773201 -28.4144413 429.14773201 -28.40161133 427.28100586 C-28.3946162 425.303641 -28.38763661 423.32627603 -28.3812418 421.34890914 C-28.37386264 419.22536189 -28.3644293 417.10182937 -28.35494995 414.97829056 C-28.33698223 410.54885285 -28.33502974 406.11950146 -28.33740234 401.69003296 C-28.3377715 400.94197659 -28.33814066 400.19392022 -28.338521 399.42319548 C-28.33983857 397.11977665 -28.34139588 394.81635809 -28.34301758 392.51293945 C-28.3497289 382.97690207 -28.3448424 373.44141111 -28.2878418 363.90551758 C-28.2463612 356.94748608 -28.23662404 349.99022251 -28.26395226 343.03210962 C-28.27719277 339.35150164 -28.27434925 335.67248597 -28.23291016 331.99205399 C-28.18706393 327.88550808 -28.21137359 323.78222889 -28.24145508 319.67553711 C-28.21687729 318.45974472 -28.1922995 317.24395233 -28.16697693 315.99131775 C-28.16244659 309.94212988 -28.16244659 309.94212988 -31.09744263 304.91541672 C-33.43676899 303.31796116 -35.78927668 302.0793639 -38.33911133 300.84887695 C-39.87871325 299.93618667 -41.41149805 299.01188512 -42.93676758 298.07543945 C-44.42344529 297.20550577 -45.91172256 296.33829971 -47.40161133 295.47387695 C-48.17182617 295.02399414 -48.94204102 294.57411133 -49.7355957 294.1105957 C-51.60199911 293.02089434 -53.47034487 291.93452084 -55.33911133 290.84887695 C-55.33726774 291.3971839 -55.33542416 291.94549086 -55.3335247 292.51041317 C-55.28926034 305.88256774 -55.25634125 319.25470939 -55.23548698 332.62692165 C-55.22506202 339.09375685 -55.21092619 345.56053905 -55.18823242 352.02734375 C-55.16645834 358.27134279 -55.15453302 364.51529094 -55.14935684 370.75932503 C-55.1456693 373.13827375 -55.13846847 375.51721978 -55.12765121 377.89614677 C-55.1130758 381.23518712 -55.11113594 384.57401875 -55.11206055 387.91308594 C-55.10487 388.89060822 -55.09767944 389.86813049 -55.090271 390.87527466 C-55.11991764 400.80771329 -56.33353314 408.52011301 -63.33911133 415.84887695 C-69.99948743 421.1195407 -77.33909446 425.23406005 -84.77661133 429.28637695 C-95.56697542 435.2367166 -106.18313902 441.43459675 -116.74316406 447.78222656 C-117.82412354 448.4294165 -118.90508301 449.07660645 -120.01879883 449.7434082 C-120.97512207 450.31937744 -121.93144531 450.89534668 -122.91674805 451.48876953 C-128.1917432 454.45057139 -133.42634925 454.45878937 -139.33911133 453.84887695 C-144.16744141 451.47860582 -148.05070469 448.06989355 -150.08911133 442.97387695 C-150.88200954 436.23424219 -150.51972297 431.28871666 -146.33911133 425.84887695 C-144.11425781 424.18408203 -144.11425781 424.18408203 -141.46020508 422.5559082 C-140.47673096 421.95085449 -139.49325684 421.34580078 -138.47998047 420.72241211 C-133.2552383 417.60584223 -127.99696135 414.55329093 -122.71411133 411.53637695 C-114.17833212 406.64425978 -105.66011856 401.73028821 -97.23901367 396.64257812 C-92.55657074 393.84887695 -92.55657074 393.84887695 -90.33911133 393.84887695 C-90.33672297 393.15442191 -90.33433462 392.45996687 -90.33187389 391.74446774 C-90.27269725 374.83452842 -90.19713017 357.92474946 -90.10339642 341.01496792 C-90.058461 332.83746569 -90.01904116 324.6600068 -89.99267578 316.48242188 C-89.96967741 309.35352523 -89.9362589 302.22476597 -89.89040977 295.09597832 C-89.86650224 291.3225092 -89.84775733 287.54917594 -89.84149742 283.77563286 C-89.8354353 280.22067215 -89.81539525 276.66605893 -89.78483582 273.11122704 C-89.77190926 271.19104433 -89.77362244 269.27078036 -89.77583313 267.35055542 C-89.69488231 259.90025164 -89.33296262 254.42218333 -84.40161133 248.53637695 C-80.05908445 244.98340042 -76.23966203 244.09667569 -70.68286133 244.2355957 C-63.23365374 245.60186392 -56.78864386 250.05694703 -50.33911133 253.84887695 C-48.48964634 254.91276094 -46.63934869 255.97519838 -44.78833008 257.03637695 C-39.69867176 259.96758051 -34.63710284 262.94417501 -29.58276367 265.93579102 C-26.78202852 267.58764715 -23.97420749 269.22654501 -21.16226196 270.85922241 C-18.31989284 272.51309036 -15.48654996 274.18231434 -12.65161133 275.84887695 C-11.06606445 276.76467529 -11.06606445 276.76467529 -9.44848633 277.69897461 C2.29446827 284.65556522 2.29446827 284.65556522 4.27448082 290.73188686 C5.67972365 296.84962195 5.96615604 302.70537513 5.97973633 308.96826172 C5.99480476 310.57957222 5.99480476 310.57957222 6.01017761 312.22343445 C6.04087055 315.74571232 6.05800613 319.26791467 6.07495117 322.7902832 C6.09367398 325.2436538 6.11324822 327.69701804 6.13363647 330.15037537 C6.18484596 336.58643839 6.22453154 343.02252226 6.26177979 349.4586792 C6.30188961 356.03476065 6.35295008 362.6107562 6.40307617 369.18676758 C6.49970304 382.07407585 6.58452236 394.9614335 6.66088867 407.84887695 C10.20958052 405.92190116 13.75133803 403.98281387 17.28710938 402.03222656 C18.49099124 401.37032683 19.69671875 400.71177257 20.90429688 400.05664062 C22.63917247 399.11468803 24.36694452 398.15968901 26.09448242 397.2043457 C27.65767212 396.34812622 27.65767212 396.34812622 29.25244141 395.47460938 C31.94457905 394.01345104 31.94457905 394.01345104 32.66088867 390.84887695 C32.75666689 389.23160861 32.79579685 387.61069309 32.80133057 385.99060059 C32.80704071 384.98952774 32.81275085 383.9884549 32.81863403 382.95704651 C32.81975189 381.85980759 32.82086975 380.76256866 32.82202148 379.63208008 C32.82698639 378.47578598 32.83195129 377.31949188 32.83706665 376.12815857 C32.85169648 372.29547537 32.85849066 368.46283351 32.86401367 364.63012695 C32.86831081 362.64465151 32.87260845 360.65917607 32.87698817 358.67370081 C32.88879648 353.14327871 32.89633593 347.61286665 32.89978337 342.08243322 C32.90426853 334.92664619 32.9218402 327.77104975 32.95078397 320.61532068 C32.97237865 315.08489415 32.98248639 309.55452135 32.98382449 304.0240531 C32.98487374 300.72017891 32.99224543 297.41652529 33.0086441 294.11268616 C33.02562164 290.43019994 33.0238448 286.74818286 33.01733398 283.06567383 C33.03115616 281.41981544 33.03115616 281.41981544 33.04525757 279.7407074 C33.03968842 278.73963455 33.03411926 277.73856171 33.02838135 276.70715332 C33.02984791 275.83626823 33.03131447 274.96538315 33.03282547 274.0681076 C32.5782824 271.35599116 31.78627899 270.53542024 29.66088867 268.84887695 C28.06219525 267.85793111 26.42977823 266.92057117 24.77807617 266.02075195 C23.29162598 265.20272095 23.29162598 265.20272095 21.77514648 264.36816406 C20.70619141 263.78429932 19.63723633 263.20043457 18.53588867 262.59887695 C9.24790101 257.45619465 0.03539065 252.21438271 -9.08911133 246.78637695 C-10.14114746 246.16794922 -11.19318359 245.54952148 -12.27709961 244.91235352 C-19.87589878 240.36376779 -25.6325411 236.7204127 -28.33911133 227.84887695 C-28.61330151 222.1895916 -27.0208661 218.1914595 -23.33911133 213.84887695 C-17.44878731 208.72204337 -10.63103626 204.98836976 -3.85073853 201.18487549 C-1.99640049 200.14442597 -0.14616433 199.09700131 1.703125 198.04760742 C4.18287481 196.64101775 6.66383949 195.23662281 9.14624023 193.8347168 C14.0551193 191.06195747 18.95670455 188.27686904 23.84838867 185.47387695 C25.0313855 184.80545776 25.0313855 184.80545776 26.23828125 184.12353516 C30.0793953 182.13824039 30.0793953 182.13824039 32.66088867 178.84887695 C32.76184845 177.27424986 32.80031378 175.69542559 32.80805969 174.11758423 C32.815215 173.11933121 32.8223703 172.12107819 32.82974243 171.09257507 C32.83243134 169.99331192 32.83512024 168.89404877 32.83789062 167.76147461 C32.84774742 166.02966194 32.84774742 166.02966194 32.85780334 164.26286316 C32.87756848 160.42955467 32.88920492 156.59628536 32.89916992 152.76293945 C32.90324545 151.45689129 32.90732098 150.15084312 32.91152 148.80521774 C32.9305706 142.60835932 32.94480272 136.41151281 32.95313197 130.21463072 C32.96290879 123.05878725 32.98924 115.90325275 33.02963287 108.74751818 C33.05977656 103.21794674 33.07459911 97.68846395 33.07791299 92.15881193 C33.08026527 88.85537627 33.09121379 85.55234669 33.11437416 82.24898148 C33.13860744 78.56409056 33.1378293 74.88001382 33.13085938 71.19506836 C33.14366943 70.09985367 33.15647949 69.00463898 33.16967773 67.87623596 C33.16273392 66.87234329 33.1557901 65.86845062 33.14863586 64.83413696 C33.15221839 63.5272438 33.15221839 63.5272438 33.1558733 62.19394875 C32.49343705 59.05554713 31.08147884 57.88460428 28.66088867 55.84887695 C26.90900667 54.73105775 25.11529578 53.67720363 23.29370117 52.67700195 C22.24931885 52.09821289 21.20493652 51.51942383 20.12890625 50.9230957 C19.02571045 50.32110352 17.92251465 49.71911133 16.78588867 49.09887695 C14.52096738 47.85517438 12.25664037 46.61038891 9.99291992 45.36450195 C8.35637451 44.46441406 8.35637451 44.46441406 6.68676758 43.54614258 C4.12418363 42.10874677 1.60866483 40.62813055 -0.88989258 39.08325195 C-1.5210498 38.6975 -2.15220703 38.31174805 -2.80249023 37.91430664 C-4.40008824 36.92706256 -5.98541569 35.92003618 -7.56958008 34.91137695 C-11.26838525 33.4923713 -12.70447383 34.41113099 -16.33911133 35.84887695 C-18.15233389 36.78166293 -19.93882993 37.76781657 -21.69848633 38.7980957 C-23.22820068 39.68766968 -23.22820068 39.68766968 -24.78881836 40.59521484 C-25.87791504 41.23579834 -26.96701172 41.87638184 -28.08911133 42.53637695 C-29.24486012 43.2107041 -30.40095399 43.88444013 -31.55737305 44.55761719 C-33.95891681 45.95617492 -36.35895936 47.35725989 -38.75805664 48.76000977 C-43.23932504 51.37743868 -47.73740775 53.9654947 -52.2355957 56.55371094 C-61.70211999 62.00068487 -71.15335974 67.47377459 -80.58911133 72.97387695 C-81.56074219 73.54001709 -82.53237305 74.10615723 -83.53344727 74.68945312 C-88.58959306 77.64112394 -93.63213451 80.6139209 -98.65942383 83.61450195 C-100.1845459 84.52304932 -100.1845459 84.52304932 -101.74047852 85.44995117 C-103.6835806 86.60911207 -105.62444116 87.77204094 -107.56274414 88.93920898 C-108.85583496 89.71047119 -108.85583496 89.71047119 -110.17504883 90.49731445 C-110.93350098 90.95283691 -111.69195312 91.40835938 -112.47338867 91.87768555 C-114.33911133 92.84887695 -114.33911133 92.84887695 -116.33911133 92.84887695 C-116.33911133 103.40887695 -116.33911133 113.96887695 -116.33911133 124.84887695 C-103.65631511 117.54248348 -90.97601178 110.23428523 -78.33911133 102.84887695 C-61.72102853 93.13974453 -45.04598103 83.52936491 -28.33911133 73.97387695 C-27.01230347 73.21469971 -27.01230347 73.21469971 -25.65869141 72.44018555 C-24.85197998 71.97950684 -24.04526855 71.51882812 -23.21411133 71.04418945 C-22.5102832 70.64216309 -21.80645508 70.24013672 -21.08129883 69.82592773 C-16.05351037 67.00625153 -11.01294014 67.32159705 -5.33911133 67.84887695 C-0.36820801 70.15679635 2.01130882 73.11112538 4.66088867 77.84887695 C5.0359451 80.6596935 5.19987529 83.06947131 5.16259766 85.87036133 C5.17070213 87.04227776 5.17070213 87.04227776 5.17897034 88.23786926 C5.19142242 90.80651364 5.17499082 93.37402938 5.15698242 95.94262695 C5.15713749 97.73571837 5.15862781 99.52881012 5.16139221 101.32189941 C5.16277463 105.07437004 5.15024466 108.82645772 5.12744141 112.57885742 C5.09905723 117.38066659 5.1017962 122.18183976 5.11453152 126.98369598 C5.12149772 130.68468628 5.11368867 134.38553045 5.10127449 138.08650208 C5.09676914 139.85666849 5.09641516 141.62685064 5.10033989 143.39701843 C5.10326138 145.87413505 5.08670105 148.35038562 5.06494141 150.82739258 C5.07169388 151.91701042 5.07169388 151.91701042 5.07858276 153.02864075 C4.98975996 159.13682271 3.44860981 163.11238764 -0.92895508 167.36450195 C-5.00137451 170.50462064 -9.45629076 173.03080188 -13.90161133 175.59887695 C-15.31083862 176.42174194 -15.31083862 176.42174194 -16.74853516 177.26123047 C-18.81498415 178.46775872 -20.88267178 179.67216735 -22.95141602 180.87475586 C-26.58957824 182.99483223 -30.21908418 185.12917769 -33.84692383 187.2668457 C-35.77469263 188.4016088 -37.70260493 189.53612764 -39.63058472 190.67053223 C-40.87714606 191.40415532 -42.12351016 192.13811367 -43.36965942 192.87243652 C-49.35288153 196.39601202 -55.34974701 199.8955247 -61.40942383 203.28637695 C-62.67230225 203.99407227 -62.67230225 203.99407227 -63.96069336 204.71606445 C-69.18033345 207.20211763 -74.07319937 207.48818537 -79.58911133 205.84887695 C-83.89391201 203.99291498 -86.18270278 200.92106478 -88.33911133 196.84887695 C-90.36254132 190.77858696 -89.45074538 186.29666427 -86.70239258 180.7434082 C-83.74805466 176.63780967 -79.33755444 174.13509547 -75.00708008 171.66918945 C-73.97188232 171.07638184 -72.93668457 170.48357422 -71.87011719 169.87280273 C-70.76676025 169.24615723 -69.66340332 168.61951172 -68.52661133 167.97387695 C-66.79106318 166.98041423 -65.05552151 165.9869399 -63.32044983 164.99264526 C-62.12943492 164.31029286 -60.93813778 163.62843285 -59.74656677 162.947052 C-53.40525475 159.32011954 -47.08846072 155.65182889 -40.77661133 151.97387695 C-39.74238037 151.37333496 -38.70814941 150.77279297 -37.64257812 150.15405273 C-36.69552002 149.60217285 -35.74846191 149.05029297 -34.77270508 148.48168945 C-33.93795654 147.99587402 -33.10320801 147.51005859 -32.24316406 147.00952148 C-30.40065036 145.98899438 -30.40065036 145.98899438 -29.33911133 144.84887695 C-29.18023041 142.55898914 -29.0877306 140.26444254 -29.02270508 137.9699707 C-29.00192398 137.28330826 -28.98114288 136.59664581 -28.95973206 135.88917542 C-28.89416989 133.68834761 -28.83532118 131.4873972 -28.77661133 129.28637695 C-28.7334324 127.79743181 -28.68981832 126.30849922 -28.64575195 124.81958008 C-28.53848203 121.16281142 -28.43723361 117.50590377 -28.33911133 113.84887695 C-44.44404468 122.7148377 -60.42443956 131.75156594 -76.27954102 141.05883789 C-84.89100689 146.09708141 -93.54425959 151.06379342 -102.19262695 156.03833008 C-104.28832711 157.24423576 -106.38338101 158.45126525 -108.4777832 159.65942383 C-111.40918979 161.35026064 -114.34259815 163.03756831 -117.27661133 164.72387695 C-118.152771 165.22999512 -119.02893066 165.73611328 -119.93164062 166.25756836 C-120.73512939 166.71824707 -121.53861816 167.17892578 -122.36645508 167.65356445 C-123.06504639 168.05559082 -123.7636377 168.45761719 -124.48339844 168.87182617 C-129.26338189 171.38853368 -134.06381113 171.44142237 -139.33911133 170.84887695 C-144.65476291 168.19105116 -148.44147141 164.5417967 -150.33911133 158.84887695 C-150.44448125 156.45386346 -150.48783737 154.05598958 -150.50024414 151.65869141 C-150.5076915 150.56540276 -150.5076915 150.56540276 -150.51528931 149.45002747 C-150.52989922 147.03739476 -150.5367123 144.62482789 -150.54223633 142.2121582 C-150.54799041 140.53167215 -150.55374811 138.8511861 -150.55950928 137.17070007 C-150.57001709 133.64423314 -150.57586064 130.11778898 -150.5793457 126.59130859 C-150.58481844 122.08673935 -150.6088211 117.58247421 -150.63731766 113.07800007 C-150.6560059 109.60429527 -150.661153 106.13066266 -150.66268158 102.65691185 C-150.66569661 100.99722831 -150.67368607 99.3375457 -150.68686676 97.67791176 C-150.70405109 95.34705622 -150.70201689 93.01692951 -150.69555664 90.68603516 C-150.70477142 90.00885437 -150.71398621 89.33167358 -150.72348022 88.63397217 C-150.66977181 82.40267947 -149.13228574 77.06397476 -145.21411133 72.22387695 C-137.90784474 66.18826543 -129.60915492 61.59430007 -121.40161133 56.91137695 C-119.67176572 55.91895557 -117.9419229 54.9265293 -116.21224976 53.93380737 C-114.42971261 52.91123605 -112.64642936 51.88997561 -110.86303711 50.86889648 C-105.34721397 47.70917814 -99.84382695 44.52789205 -94.33911133 41.34887695 C-87.85393199 37.60517751 -81.36741956 33.86389125 -74.87426758 30.1340332 C-65.88338915 24.96492196 -56.89752606 19.79053958 -47.98364258 14.48950195 C-47.37345779 14.12674667 -46.76327301 13.76399139 -46.13459778 13.39024353 C-43.19344104 11.64041724 -40.25508251 9.88618417 -37.31982422 8.12646484 C-13.29147868 -6.21518526 -13.29147868 -6.21518526 0 0 Z " fill="#1890AB" transform="translate(360.339111328125,105.151123046875)"/>
<path d="M0 0 C3.69916516 3.17071299 7.86317475 6.96670632 8.42578125 12.01171875 C8.59353061 17.77699934 8.25597098 22.45806742 4.1875 26.875 C-2.62623932 32.32401479 -10.24467834 36.51364379 -17.875 40.6875 C-20.07888036 41.90749063 -22.28200245 43.12885202 -24.484375 44.3515625 C-26.0921582 45.24343262 -26.0921582 45.24343262 -27.73242188 46.15332031 C-32.06008034 48.57236339 -36.3509954 51.05008803 -40.625 53.5625 C-41.30506104 53.95993408 -41.98512207 54.35736816 -42.68579102 54.7668457 C-44.40655013 55.7830839 -46.11058484 56.82750929 -47.8125 57.875 C-48.52865486 58.30225272 -49.24480973 58.72950544 -49.98266625 59.16970521 C-52.02378686 60.74417499 -52.02378686 60.74417499 -52.31570601 63.26097268 C-52.31798434 64.69005014 -52.31798434 64.69005014 -52.32030869 66.14799786 C-52.33175627 67.24775721 -52.34320386 68.34751657 -52.35499835 69.48060197 C-52.34723793 70.69362121 -52.33947752 71.90664045 -52.33148193 73.15641785 C-52.34273381 75.08361592 -52.34273381 75.08361592 -52.354213 77.04974729 C-52.37453913 80.62318471 -52.36990246 84.19622666 -52.36130548 87.76969564 C-52.3563743 91.62044061 -52.37442844 95.47108448 -52.38972473 99.3217926 C-52.4130743 105.99578831 -52.42178363 112.66967525 -52.42061615 119.34370995 C-52.41894923 128.9932775 -52.43925797 138.64269976 -52.46497145 148.29222862 C-52.50608873 163.94700926 -52.52937456 179.60176384 -52.54150391 195.2565918 C-52.55332615 210.4659272 -52.57351078 225.67521349 -52.60498047 240.88452148 C-52.60691657 241.82164993 -52.60885267 242.75877837 -52.61084744 243.72430464 C-52.62061178 248.4254914 -52.63054094 253.1266778 -52.64055204 257.82786405 C-52.72342206 296.84355268 -52.77737755 335.85924089 -52.8125 374.875 C-49.12408802 372.78220317 -45.4397434 370.68247145 -41.7590332 368.57617188 C-40.50590166 367.86037509 -39.25167199 367.14649728 -37.99633789 366.43457031 C-36.19386468 365.41191068 -34.39543177 364.38245256 -32.59765625 363.3515625 C-31.51363525 362.73361816 -30.42961426 362.11567383 -29.31274414 361.47900391 C-26.72023358 360.1165847 -26.72023358 360.1165847 -25.8125 357.875 C-25.71586425 356.11916777 -25.68346356 354.3596538 -25.68119812 352.60116577 C-25.67718994 351.48248108 -25.67318176 350.36379639 -25.66905212 349.21121216 C-25.6698452 347.36135208 -25.6698452 347.36135208 -25.6706543 345.47412109 C-25.66532074 343.48706963 -25.65998121 341.50001818 -25.65441763 339.51296735 C-25.64921475 337.37258055 -25.64630503 335.23219991 -25.64383507 333.09180832 C-25.63792617 328.6283557 -25.62138529 324.16498289 -25.60249329 319.7015686 C-25.59615553 318.17326169 -25.58982991 316.64495473 -25.58351612 315.11664772 C-25.58035031 314.35113508 -25.5771845 313.58562243 -25.57392275 312.79691243 C-25.53186408 302.40449894 -25.49889161 292.01212179 -25.48657227 281.61962891 C-25.47817986 274.61191527 -25.45564274 267.60439846 -25.4172166 260.59678328 C-25.39748959 256.88976399 -25.38503994 253.18303871 -25.39005089 249.47596359 C-25.39558048 245.33445181 -25.37023978 241.19366897 -25.3425293 237.05224609 C-25.35243141 235.2206041 -25.35243141 235.2206041 -25.36253357 233.35195923 C-25.28622589 226.40155038 -24.62441089 221.75420116 -20.8125 215.875 C-15.40302735 211.56950136 -10.6854373 210.16941328 -3.8125 210.875 C1.45344344 212.73356827 3.98145768 215.47814196 7.1875 219.875 C8.26332266 223.10246797 8.32130659 225.44349137 8.33467102 228.83854675 C8.34182632 230.08481842 8.34898163 231.33109009 8.35635376 232.61512756 C8.35919401 233.9988706 8.36190574 235.38261391 8.36450195 236.76635742 C8.37076763 238.22178306 8.37741453 239.6772071 8.38441467 241.13262939 C8.40544782 245.9152312 8.41581743 250.69783329 8.42578125 255.48046875 C8.4298293 257.12806019 8.43394624 258.77565147 8.43813133 260.42324257 C8.45718261 268.16531732 8.47141288 275.90738255 8.4797433 283.64947623 C8.48951114 292.57960811 8.51581896 301.50949182 8.55624419 310.43953627 C8.58643256 317.34582387 8.60121482 324.25204045 8.60452431 331.15839273 C8.60687202 335.28126145 8.61579556 339.40386503 8.64098549 343.52666283 C8.66431856 347.40830531 8.66847866 351.28950909 8.65822411 355.17120361 C8.65772987 356.5917488 8.66401707 358.01231597 8.67778015 359.43279457 C8.7588465 368.29952669 8.58131586 375.14869436 2.28076172 381.92602539 C-4.09434437 386.56725532 -10.80065123 390.48415034 -17.6875 394.3125 C-20.16900388 395.70550347 -22.64729637 397.10415657 -25.125 398.50390625 C-25.75558319 398.85948608 -26.38616638 399.21506592 -27.03585815 399.5814209 C-31.53909093 402.12943531 -35.99834472 404.74442606 -40.4375 407.40234375 C-41.05062042 407.76905685 -41.66374084 408.13576996 -42.29544067 408.51359558 C-45.23682799 410.27520538 -48.17317645 412.04446607 -51.10498047 413.82202148 C-52.16088379 414.45567627 -53.21678711 415.08933105 -54.3046875 415.7421875 C-55.22620605 416.30019043 -56.14772461 416.85819336 -57.09716797 417.43310547 C-62.58831587 420.34901263 -67.6589502 421.66265437 -73.8125 420.875 C-79.24564663 418.88981181 -81.92637371 415.94586916 -84.90562111 411.09525073 C-86.08017877 408.21966002 -86.06698501 405.89496738 -86.07256222 402.78848839 C-86.07962781 401.53266878 -86.0866934 400.27684916 -86.0939731 398.98297441 C-86.09172166 397.58674296 -86.08927515 396.19051181 -86.08665466 394.79428101 C-86.09110607 393.31302482 -86.09641979 391.83177102 -86.10252339 390.35052073 C-86.11672598 386.27427939 -86.11836625 382.19811422 -86.11792648 378.12185168 C-86.11957273 373.72767221 -86.13263579 369.3335243 -86.14411926 364.93936157 C-86.16698477 355.32766375 -86.17489176 345.71598798 -86.17994571 336.10426664 C-86.18320138 330.10262568 -86.18972314 324.10099113 -86.1969471 318.09935379 C-86.21651622 301.48293196 -86.23291821 284.86651611 -86.23582363 268.25008202 C-86.2360112 267.18639807 -86.23619877 266.12271412 -86.23639202 265.02679733 C-86.23675828 262.87042848 -86.23712197 260.71405963 -86.23748314 258.55769078 C-86.23766595 257.48726122 -86.23784876 256.41683166 -86.23803711 255.31396484 C-86.23821766 254.24222864 -86.23839821 253.17049243 -86.23858423 252.06627937 C-86.2421251 234.70414355 -86.2691407 217.34213183 -86.306535 199.98003905 C-86.34461901 182.15504186 -86.36398112 164.33010624 -86.36428314 146.50506747 C-86.36486775 136.49684021 -86.3733614 126.48876092 -86.40228081 116.48057175 C-86.42679609 107.95726782 -86.43407668 99.4341658 -86.41903328 90.91083615 C-86.41186459 86.56319965 -86.41271982 82.21596184 -86.43544388 77.86837006 C-86.45606734 73.88442543 -86.45340262 69.90118512 -86.43256903 65.91724785 C-86.42908049 64.47977782 -86.4339573 63.04225664 -86.44827347 61.60485367 C-86.52818391 53.02518178 -85.96102712 45.99328279 -80.8125 38.875 C-74.59601281 32.74159657 -66.75244271 28.85326399 -59.125 24.75 C-56.72384379 23.44244419 -54.32637005 22.12823486 -51.9296875 20.8125 C-51.33081223 20.48434296 -50.73193695 20.15618591 -50.11491394 19.81808472 C-43.3605097 16.10224886 -36.74149425 12.16172252 -30.14379883 8.17529297 C-9.91693249 -3.966773 -9.91693249 -3.966773 0 0 Z " fill="#000000" transform="translate(234.8125,103.125)"/>
<path d="M0 0 C5.92239601 -0.09964557 11.84429294 -0.17183264 17.76733398 -0.21972656 C19.77783724 -0.23971393 21.78828333 -0.26691326 23.79858398 -0.30175781 C48.67039442 -0.72174369 48.67039442 -0.72174369 55.71459961 5.51904297 C59.87014955 10.25077354 60.49089718 13.92438873 60.38671875 20.046875 C59.72121798 25.12888089 57.70521015 28.49837283 54 32 C50.14081561 34.37639344 46.18621389 36.27267873 42 38 C52.12440524 52.67123317 52.12440524 52.67123317 66 63 C68.81854968 62.86578335 70.3693781 62.47199214 72.62715149 60.78215027 C74.52122604 58.32337536 74.36174811 56.69464119 74.34057617 53.6105957 C74.34034958 52.50968094 74.34012299 51.40876617 74.33988953 50.27449036 C74.32440567 49.08691635 74.30892181 47.89934235 74.29296875 46.67578125 C74.28872391 45.45924362 74.28447906 44.24270599 74.28010559 42.98930359 C74.26328851 39.09681229 74.22562959 35.20483529 74.1875 31.3125 C74.17245713 28.67643976 74.15876804 26.04037142 74.14648438 23.40429688 C74.11337499 16.9360219 74.06314505 10.46804769 74 4 C71.69 3.01 69.38 2.02 67 1 C67 0.67 67 0.34 67 0 C85.15 0 103.3 0 122 0 C122.99 4.95 123.98 9.9 125 15 C121.18108491 13.09054245 119.91456512 11.68434571 117.3515625 8.4609375 C112.84489811 3.58957194 106.17943767 2.95249119 99.91796875 2.68359375 C98.65762817 2.62643188 98.65762817 2.62643188 97.37182617 2.56811523 C96.32099854 2.52501221 95.2701709 2.48190918 94.1875 2.4375 C90.825625 2.293125 87.46375 2.14875 84 2 C84 11.57 84 21.14 84 31 C87.856875 30.9175 91.71375 30.835 95.6875 30.75 C96.89494873 30.73420898 98.10239746 30.71841797 99.34643555 30.70214844 C105.56069181 30.52273124 105.56069181 30.52273124 111.20703125 28.140625 C113.19125322 26.03746265 113.19125322 26.03746265 114 23 C114.66 23 115.32 23 116 23 C116 29.27 116 35.54 116 42 C115.34 42 114.68 42 114 42 C113.360625 41.030625 112.72125 40.06125 112.0625 39.0625 C110.28938993 35.75744775 110.28938993 35.75744775 107 35 C105.22833025 34.85164052 103.45232388 34.75229982 101.67578125 34.68359375 C100.74934814 34.64548584 99.82291504 34.60737793 98.8684082 34.56811523 C97.6949585 34.52501221 96.52150879 34.48190918 95.3125 34.4375 C89.7128125 34.2209375 89.7128125 34.2209375 84 34 C84 43.57 84 53.14 84 63 C90.249375 62.8453125 90.249375 62.8453125 96.625 62.6875 C97.92775879 62.66260498 99.23051758 62.63770996 100.57275391 62.61206055 C108.45720561 62.36120827 113.97142581 61.57983082 119.5625 55.625 C120.14257812 55.01785156 120.72265625 54.41070313 121.3203125 53.78515625 C121.87460938 53.19605469 122.42890625 52.60695313 123 52 C123.97548332 51.01716379 124.95417557 50.03749117 125.9375 49.0625 C126.618125 48.381875 127.29875 47.70125 128 47 C127.37968409 53.57534861 125.85102717 59.66692592 124 66 C122.0625 66.5625 122.0625 66.5625 120 67 C119.67 66.67 119.34 66.34 119 66 C116.95051446 65.96036966 114.89964903 65.99112114 112.85058594 66.04858398 C111.53121033 66.08028183 110.21183472 66.11197968 108.85247803 66.14463806 C108.14159782 66.16228651 107.43071762 66.17993496 106.69829559 66.19811821 C102.13056078 66.29710078 97.5617305 66.32152936 92.99312973 66.35571194 C88.98613937 66.38985064 84.98371656 66.45228784 80.97851562 66.5793457 C52.92305018 67.43427709 52.92305018 67.43427709 46.04858398 61.53149414 C42.59567827 57.73344754 40.23960665 53.58569441 38 49 C35.06732794 44.00168361 35.06732794 44.00168361 31 40 C26.1642767 38.96224522 21.99929705 38.95238765 17 39 C17.33 46.26 17.66 53.52 18 61 C19.98 61.99 21.96 62.98 24 64 C24 64.33 24 64.66 24 65 C16.08 65 8.16 65 0 65 C2.61941217 63.25372522 4.03824877 62.61277612 7 62 C7.04633306 54.75034756 7.08187408 47.50072703 7.10362434 40.25095654 C7.1140632 36.88461771 7.12822409 33.51838015 7.15087891 30.15209961 C7.17507811 26.28236185 7.18647192 22.41276824 7.1953125 18.54296875 C7.20563507 17.33352097 7.21595764 16.12407318 7.22659302 14.87797546 C7.22681961 13.19657219 7.22681961 13.19657219 7.22705078 11.48120117 C7.231492 10.49302902 7.23593323 9.50485687 7.24050903 8.48674011 C7.17312245 5.74832371 7.17312245 5.74832371 5 3 C2.44816596 1.79549696 2.44816596 1.79549696 0 1 C0 0.67 0 0.34 0 0 Z M17 3 C17 13.23 17 23.46 17 34 C26.99568651 36.49892163 37.61785499 38.21230278 47 33 C50.97645121 29.22237135 51.30786906 25.77159262 51.5 20.5 C51.31917096 15.20170912 50.82168843 11.92225918 47 8 C42.33403556 4.47672073 38.93133039 2.86708285 33.11328125 2.90234375 C31.845448 2.90609009 31.845448 2.90609009 30.55200195 2.90991211 C29.48296631 2.91901611 28.41393066 2.92812012 27.3125 2.9375 C23.909375 2.958125 20.50625 2.97875 17 3 Z " fill="#1890AA" transform="translate(7,596)"/>
<path d="M0 0 C0.91612061 0.00757324 1.83224121 0.01514648 2.77612305 0.02294922 C14.78111427 0.31401794 23.71371377 3.74661925 32.33984375 12.09765625 C39.06458135 19.31565088 40.13431325 26.49070544 40.0402832 36.07763672 C39.72884924 44.81886935 37.5134175 50.73385198 31.5625 57.25 C22.49020953 65.6541185 10.38117507 69.03922585 -1.86328125 68.6875 C-14.04756865 67.474756 -24.3494427 64.37556192 -32.87109375 55.33984375 C-39.87218041 46.48392374 -40.3178848 36.2859427 -39.375 25.4375 C-37.48804382 17.1735413 -31.47776123 10.30502528 -24.5625 5.625 C-16.76909037 1.27590208 -8.84047488 -0.10311023 0 0 Z M-15.0546875 6.7734375 C-20.696697 12.5277258 -22.24357804 19.84320722 -22.46875 27.71484375 C-21.87681997 40.16017269 -17.67900334 51.81297815 -8.375 60.3125 C-4.30965911 63.64835916 -1.33388975 65.2157389 3.9375 65.8125 C9.29331772 65.26784057 13.47710857 63.79150223 17.171875 59.7421875 C23.27254308 50.87827564 23.3284882 40.74546873 21.625 30.4375 C19.09061584 20.49693623 14.22995088 11.2888666 5.625 5.4375 C-1.8227713 1.87238467 -8.28512914 1.38927713 -15.0546875 6.7734375 Z " fill="#1890AA" transform="translate(397.375,594.5625)"/>
<path d="M0 0 C22.44 0 44.88 0 68 0 C65.75 10.125 65.75 10.125 63.875 15.0625 C63.52179688 16.00222656 63.16859375 16.94195313 62.8046875 17.91015625 C62.53914062 18.59980469 62.27359375 19.28945313 62 20 C61.34 19.67 60.68 19.34 60 19 C59.87625 17.7625 59.7525 16.525 59.625 15.25 C59.14884937 11.02510792 58.34216042 8.85306377 55 6 C51.72991435 4.69958324 48.4203084 3.81122699 45 3 C43.68 2.67 42.36 2.34 41 2 C41.33 21.47 41.66 40.94 42 61 C44.64 61.99 47.28 62.98 50 64 C50 64.33 50 64.66 50 65 C38.12 65 26.24 65 14 65 C18 63 18 63 23 62 C23.33 42.2 23.66 22.4 24 2 C8.61379003 6.35162791 8.61379003 6.35162791 0.296875 17.953125 C-0.13109375 18.62859375 -0.5590625 19.3040625 -1 20 C-1.66 20 -2.32 20 -3 20 C-2.68955976 17.60388361 -2.37671642 15.20812165 -2.0625 12.8125 C-1.97548828 12.13896484 -1.88847656 11.46542969 -1.79882812 10.77148438 C-1.32021889 7.13759945 -0.71988241 3.59941204 0 0 Z " fill="#1890AA" transform="translate(521,596)"/>
<path d="M0 0 C10.89 0 21.78 0 33 0 C32 2 32 2 28.9375 3.125 C27.968125 3.41375 26.99875 3.7025 26 4 C25.9007031 10.11974418 25.82832904 16.23901352 25.78027344 22.359375 C25.76022841 24.43888525 25.73298487 26.51833963 25.69824219 28.59765625 C25.64941052 31.59649487 25.62695972 34.59458463 25.609375 37.59375 C25.58872986 38.51490601 25.56808472 39.43606201 25.54681396 40.38513184 C25.54464551 46.70344064 26.88051705 50.51353419 30 56 C30 56.66 30 57.32 30 58 C36.78807137 60.75192083 42.99451706 62.51550089 50.2578125 60.31640625 C55.94147162 57.71229627 59.67678509 54.1829075 62.11401367 48.3203125 C63.15375551 44.42378758 63.30572539 40.75163901 63.30078125 36.75 C63.30720894 35.58549316 63.30720894 35.58549316 63.31376648 34.39746094 C63.3194838 32.76368175 63.32002929 31.12987713 63.31567383 29.49609375 C63.31250937 27.00736872 63.33601971 24.51982878 63.36132812 22.03125 C63.36360108 20.43750149 63.36430463 18.8437498 63.36328125 17.25 C63.372491 16.51233398 63.38170074 15.77466797 63.39118958 15.01464844 C63.34911417 10.27988949 62.55826095 6.99664212 60 3 C57.44278263 1.57442644 57.44278263 1.57442644 55 1 C55 0.67 55 0.34 55 0 C61.6 0 68.2 0 75 0 C73 1.33333333 71 2.66666667 69 4 C67.71843006 7.84470983 67.82522088 11.49961868 67.7890625 15.5078125 C67.76097453 17.23438417 67.73230996 18.96094653 67.703125 20.6875 C67.66203546 23.39940943 67.62513535 26.11114887 67.59863281 28.82324219 C67.57078532 31.44762827 67.52489791 34.07123389 67.4765625 36.6953125 C67.47330963 37.49252716 67.47005676 38.28974182 67.46670532 39.1111145 C67.30109946 46.81284428 65.68425153 54.46937689 60 60 C51.51165081 66.75522917 42.66027319 67.56699157 32.109375 66.46484375 C24.0254459 65.25631666 17.10460209 62.72233466 12 56 C8.63342375 49.26251574 7.40122268 43.31503133 7.390625 35.8359375 C7.36582062 34.45881088 7.36582062 34.45881088 7.34051514 33.05386353 C7.292461 30.16083811 7.2707598 27.26833655 7.25 24.375 C7.22180461 22.39710966 7.19187227 20.41924327 7.16015625 18.44140625 C7.08671407 13.6276474 7.03688046 8.81417213 7 4 C4.69 3.01 2.38 2.02 0 1 C0 0.67 0 0.34 0 0 Z " fill="#1890AA" transform="translate(442,596)"/>
<path d="M0 0 C7.92 0 15.84 0 24 0 C23 2 23 2 18 4 C17.67 13.24 17.34 22.48 17 32 C29.87 32 42.74 32 56 32 C55.67 22.43 55.34 12.86 55 3 C52.69 2.34 50.38 1.68 48 1 C48 0.67 48 0.34 48 0 C56.25 0 64.5 0 73 0 C72.67 0.66 72.34 1.32 72 2 C70.02 2.66 68.04 3.32 66 4 C66 22.81 66 41.62 66 61 C68.31 61.99 70.62 62.98 73 64 C73 64.33 73 64.66 73 65 C64.75 65 56.5 65 48 65 C51 63 51 63 55 61 C55.33 52.09 55.66 43.18 56 34 C43.13 34 30.26 34 17 34 C17 43.24 17 52.48 17 62 C19.31 62.66 21.62 63.32 24 64 C24 64.33 24 64.66 24 65 C16.08 65 8.16 65 0 65 C2 63 2 63 7 62 C6.505 33.29 6.505 33.29 6 4 C4.02 3.01 2.04 2.02 0 1 C0 0.67 0 0.34 0 0 Z " fill="#1890AA" transform="translate(280,596)"/>
<path d="M0 0 C2.46168954 1.58013856 4.33281924 3.33972084 6.3125 5.484375 C4.86433158 9.78952786 2.69254712 12.80435033 -0.1875 16.296875 C-0.9815625 17.27269531 -1.775625 18.24851562 -2.59375 19.25390625 C-3.2846875 19.98996094 -3.975625 20.72601562 -4.6875 21.484375 C-5.3475 21.484375 -6.0075 21.484375 -6.6875 21.484375 C-6.58050781 20.83210937 -6.47351563 20.17984375 -6.36328125 19.5078125 C-5.60182565 13.95655553 -5.19990913 10.20949812 -8.6875 5.484375 C-15.80725804 -0.00377182 -21.96446976 -0.05370041 -30.6875 0.484375 C-36.81690895 1.48755159 -40.3948523 4.52361842 -44.2109375 9.32421875 C-48.94931426 16.25628846 -49.59002483 23.20423444 -48.6875 31.484375 C-46.71013763 41.1470858 -41.31440068 48.53646888 -33.265625 54.18359375 C-25.3983402 58.55569947 -17.58268787 59.43250034 -8.875 57.296875 C-5.62649268 56.30054251 -2.95891155 55.19831355 -0.1875 53.234375 C0.6375 52.656875 1.4625 52.079375 2.3125 51.484375 C3.3025 51.814375 4.2925 52.144375 5.3125 52.484375 C1.04505164 58.97831816 -5.30289485 62.16746216 -12.75 63.796875 C-24.61855458 65.69001868 -36.30798501 63.92039383 -46.46875 57.20703125 C-53.15084345 52.01899743 -57.79329708 45.81214285 -59.6875 37.484375 C-60.75568181 27.27608079 -60.25836032 18.28406132 -53.76953125 10.05078125 C-40.38095565 -4.38044449 -17.80751284 -8.38609616 0 0 Z " fill="#1890AA" transform="translate(269.6875,598.515625)"/>
<path d="M0 0 C1.32115772 3.0488255 2.64222089 6.09769158 3.96289062 9.14672852 C5.12231094 11.82258577 6.28401769 14.49743547 7.44726562 17.17163086 C10.22809716 23.56952263 12.99760448 29.97095805 15.7011261 36.40197754 C16.85093962 39.13535143 18.00946706 41.86499294 19.16860962 44.59442139 C19.71934381 45.89812686 20.26577267 47.20366012 20.80770874 48.51104736 C21.5690732 50.34662947 22.34674429 52.17542175 23.125 54.00390625 C23.56070313 55.04361572 23.99640625 56.0833252 24.4453125 57.15454102 C26.2124742 60.38887984 28.29806266 62.51360259 31 65 C31.66 65.66 32.32 66.32 33 67 C24.09 67 15.18 67 6 67 C8.91765 65.0549 10.62537285 64.54723683 14 64 C13.44549838 59.96005961 12.80044424 56.00222119 12 52 C-1.2 52 -14.4 52 -28 52 C-30.23026107 58.28770142 -30.23026107 58.28770142 -29 64 C-26.52363988 65.37466625 -26.52363988 65.37466625 -24 66 C-24 66.33 -24 66.66 -24 67 C-30.27 67 -36.54 67 -43 67 C-40 64 -40 64 -37.69140625 62.07421875 C-33.50191005 57.86282895 -31.40491373 52.12333212 -28.9375 46.8125 C-28.37458252 45.62954346 -27.81166504 44.44658691 -27.23168945 43.2277832 C-24.31055792 37.07661782 -21.49421127 30.88735838 -18.765625 24.6484375 C-18.24750244 23.47949951 -17.72937988 22.31056152 -17.19555664 21.10620117 C-16.21383954 18.88068967 -15.25102126 16.6467137 -14.31030273 14.40356445 C-11.71602216 8.53420824 -7.52703319 0 0 0 Z M-8 9 C-9.76304513 12.76641769 -11.52271125 16.53439157 -13.27954102 20.30371094 C-13.87501591 21.58016316 -14.47134085 22.85621925 -15.06860352 24.13183594 C-15.93741824 25.98784048 -16.80294587 27.84535067 -17.66796875 29.703125 C-18.18641357 30.81333008 -18.7048584 31.92353516 -19.23901367 33.06738281 C-21.59683268 38.33284082 -23.78105393 43.67452943 -26 49 C-14.12 49 -2.24 49 10 49 C8.34750284 44.01076225 8.34750284 44.01076225 6.39599609 39.19775391 C6.09583588 38.51750153 5.79567566 37.83724915 5.48641968 37.13638306 C5.16863556 36.42364227 4.85085144 35.71090149 4.5234375 34.9765625 C4.02827133 33.85729874 4.02827133 33.85729874 3.52310181 32.71542358 C2.47628947 30.35080712 1.42570743 27.98788788 0.375 25.625 C-0.33879203 24.01443385 -1.0523363 22.40375787 -1.765625 20.79296875 C-3.50755244 16.86070254 -5.25286088 12.92995322 -7 9 C-7.33 9 -7.66 9 -8 9 Z " fill="#1890AA" transform="translate(178,594)"/>
<path d="M0 0 C3.15275268 2.02942938 4.91776896 4.14410233 6.984375 7.27734375 C6.984375 8.26734375 6.984375 9.25734375 6.984375 10.27734375 C2.07987975 9.85695844 0.32871736 7.70529467 -3.015625 4.27734375 C-7.1225304 1.94639744 -11.38863595 1.58839869 -16.015625 2.27734375 C-20.01010176 3.59694768 -23.08288832 5.31545905 -26.015625 8.33984375 C-28.03432423 14.26977272 -28.03124859 20.08984679 -25.390625 25.77734375 C-21.35932819 30.02081407 -17.85706108 31.44299698 -12.078125 31.71484375 C-6.88664761 31.51967543 -4.09129857 30.53788261 -0.015625 27.27734375 C1.304375 24.63734375 2.624375 21.99734375 3.984375 19.27734375 C-1.955625 19.27734375 -7.895625 19.27734375 -14.015625 19.27734375 C-14.015625 17.95734375 -14.015625 16.63734375 -14.015625 15.27734375 C-6.425625 15.27734375 1.164375 15.27734375 8.984375 15.27734375 C6.53327324 28.75840342 6.53327324 28.75840342 0.984375 33.27734375 C-4.9766261 36.97316443 -11.12592365 37.09274723 -18.015625 36.27734375 C-23.94004208 34.5526368 -27.63423709 31.34942561 -31.015625 26.27734375 C-33.52003124 20.24400144 -33.63961629 14.36948021 -31.2265625 8.2890625 C-28.59536767 3.29407068 -25.39122612 0.3822745 -20.328125 -1.97265625 C-13.03170155 -3.62467665 -6.7539035 -3.36497674 0 0 Z " fill="#040707" transform="translate(459.015625,686.72265625)"/>
<path d="M0 0 C1.65 0 3.3 0 5 0 C6.92832768 2.17238166 8.43602567 4.15055833 10 6.5625 C10.61875 7.47612305 10.61875 7.47612305 11.25 8.40820312 C12.0828832 9.63800723 12.90973257 10.87191954 13.73046875 12.10986328 C15.75343613 15.12175049 17.87873571 18.0567458 20 21 C22.74285148 18.55313968 24.80528038 15.92518203 26.83984375 12.890625 C27.34580078 12.13652344 27.85175781 11.38242187 28.37304688 10.60546875 C29.42204171 9.02608328 30.46103058 7.44000929 31.49023438 5.84765625 C31.99748047 5.09871094 32.50472656 4.34976563 33.02734375 3.578125 C33.47843506 2.89137695 33.92952637 2.20462891 34.39428711 1.49707031 C36 0 36 0 41 0 C41 12.21 41 24.42 41 37 C39.68 37 38.36 37 37 37 C36.67 27.76 36.34 18.52 36 9 C31.92835758 14.91120819 31.92835758 14.91120819 27.89379883 20.84765625 C27.37841553 21.57855469 26.86303223 22.30945313 26.33203125 23.0625 C25.81358643 23.81660156 25.2951416 24.57070313 24.76098633 25.34765625 C23 27 23 27 20.5 27.4921875 C17.21721104 26.84588842 16.54335431 25.79033354 14.66796875 23.0625 C14.15258545 22.33160156 13.63720215 21.60070312 13.10620117 20.84765625 C12.47302979 19.90792969 11.8398584 18.96820312 11.1875 18 C9.145625 15.03 7.10375 12.06 5 9 C4.67 18.24 4.34 27.48 4 37 C2.68 37 1.36 37 0 37 C0 24.79 0 12.58 0 0 Z " fill="#040707" transform="translate(128,685)"/>
<path d="M0 0 C5.51257908 1.10251582 6.91989776 2.61887655 10.1875 6.75 C10.65655762 7.32331055 11.12561523 7.89662109 11.60888672 8.48730469 C15.88026213 13.74460226 20.01281203 19.11554723 24.1015625 24.515625 C25.77462794 26.81879824 25.77462794 26.81879824 27 28 C27.33 18.76 27.66 9.52 28 0 C29.32 0 30.64 0 32 0 C32 12.21 32 24.42 32 37 C27 37 27 37 25.38183594 35.61401367 C24.92067383 34.97181885 24.45951172 34.32962402 23.984375 33.66796875 C23.45932373 32.95632568 22.93427246 32.24468262 22.39331055 31.51147461 C21.85101807 30.74456299 21.30872559 29.97765137 20.75 29.1875 C19.60699205 27.62908993 18.46245467 26.07180049 17.31640625 24.515625 C16.75711426 23.74798828 16.19782227 22.98035156 15.62158203 22.18945312 C12.25807082 17.64805467 8.61132478 13.34583152 5 9 C4.67 18.24 4.34 27.48 4 37 C2.68 37 1.36 37 0 37 C0 24.79 0 12.58 0 0 Z " fill="#040707" transform="translate(385,685)"/>
<path d="M0 0 C3.34125 -0.0825 6.6825 -0.165 10.125 -0.25 C11.16672363 -0.28641602 12.20844727 -0.32283203 13.28173828 -0.36035156 C19.03094319 -0.42891296 22.51620346 0.01758646 27 4 C29.68696856 8.03045284 29.79874828 11.26398747 29 16 C27.61676285 18.6617671 26.28564195 19.92214369 24 22 C21.828125 22.65625 21.828125 22.65625 20 23 C20.721875 23.92683594 21.44375 24.85367188 22.1875 25.80859375 C23.1251261 27.01813142 24.06261926 28.22777216 25 29.4375 C25.47695312 30.04916016 25.95390625 30.66082031 26.4453125 31.29101562 C30 35.88671875 30 35.88671875 30 37 C27.26171875 37.37109375 27.26171875 37.37109375 24 37 C21.83203125 34.41015625 21.83203125 34.41015625 19.8125 31.0625 C17.60633565 27.69252226 15.93459282 25.31515339 11.9765625 23.98046875 C8.62320324 23.66200586 8.62320324 23.66200586 4 24 C4 28.29 4 32.58 4 37 C2.68 37 1.36 37 0 37 C0 24.79 0 12.58 0 0 Z M4 4 C4 9.28 4 14.56 4 20 C6.041875 20.04125 8.08375 20.0825 10.1875 20.125 C11.33605469 20.14820313 12.48460937 20.17140625 13.66796875 20.1953125 C17.8655164 19.94926633 20.73689175 19.13679742 23.875 16.3125 C25.55034251 12.86874039 24.99044279 10.63162357 24 7 C21.43524695 4.16903207 19.97730068 3.99829071 16.109375 3.70703125 C14.65592448 3.72405529 13.20270153 3.76283624 11.75 3.8125 C7.91375 3.9053125 7.91375 3.9053125 4 4 Z " fill="#040707" transform="translate(220,685)"/>
<path d="M0 0 C1.65 0 3.3 0 5 0 C7.28099657 5.10759721 9.55959485 10.21625467 11.8359375 15.32592773 C12.61131347 17.06548242 13.38735411 18.804741 14.1640625 20.54370117 C15.27777518 23.03748001 16.38912456 25.5323 17.5 28.02734375 C17.84998047 28.80963852 18.19996094 29.59193329 18.56054688 30.39793396 C21 35.88612829 21 35.88612829 21 37 C19.35 37 17.7 37 16 37 C13 31.375 13 31.375 13 28 C6.07 28 -0.86 28 -8 28 C-8.66 29.98 -9.32 31.96 -10 34 C-10.66 34.99 -11.32 35.98 -12 37 C-13.32 37 -14.64 37 -16 37 C-13.52393903 28.78519843 -9.96582376 21.17389247 -6.3125 13.4375 C-5.6994155 12.12977017 -5.08678178 10.82182892 -4.47460938 9.51367188 C-2.98825841 6.33999516 -1.49584 3.16921737 0 0 Z M2 6 C-1.96 14.91 -1.96 14.91 -6 24 C-0.72 24 4.56 24 10 24 C8.02989474 17.79416842 5.74844552 11.90148454 3 6 C2.67 6 2.34 6 2 6 Z " fill="#040707" transform="translate(192,685)"/>
<path d="M0 0 C8.25 0 16.5 0 25 0 C25 1.32 25 2.64 25 4 C18.4 4 11.8 4 5 4 C5 7.96 5 11.92 5 16 C10.94 16 16.88 16 23 16 C23 17.32 23 18.64 23 20 C17.06 20 11.12 20 5 20 C5 24.62 5 29.24 5 34 C11.6 34 18.2 34 25 34 C25 34.99 25 35.98 25 37 C16.75 37 8.5 37 0 37 C0 24.79 0 12.58 0 0 Z " fill="#040707" transform="translate(298,685)"/>
<path d="M0 0 C1.32 0 2.64 0 4 0 C4 5.28 4 10.56 4 16 C5.8975 15.9175 7.795 15.835 9.75 15.75 C11.35101563 15.68039062 11.35101563 15.68039062 12.984375 15.609375 C16.63207941 14.87227411 17.76740536 13.93815503 20 11 C21.10716854 8.41660675 21.9338691 5.82403444 22.77734375 3.14453125 C24 1 24 1 26.62890625 0.19921875 C27.41136719 0.13347656 28.19382812 0.06773437 29 0 C28.3764914 4.16442166 26.9651397 7.44269569 25.0625 11.1875 C24.53785156 12.23292969 24.01320313 13.27835938 23.47265625 14.35546875 C22 17 22 17 20 19 C20.33322266 19.50974365 20.66644531 20.0194873 21.00976562 20.54467773 C22.50886253 22.84075955 24.00447288 25.13909162 25.5 27.4375 C26.02464844 28.23994141 26.54929687 29.04238281 27.08984375 29.86914062 C27.58613281 30.63291016 28.08242188 31.39667969 28.59375 32.18359375 C29.05458984 32.89056396 29.51542969 33.59753418 29.99023438 34.32592773 C31 36 31 36 31 37 C28.7265625 37.29296875 28.7265625 37.29296875 26 37 C24.0859375 34.98828125 24.0859375 34.98828125 22.375 32.3125 C21.80523437 31.44238281 21.23546875 30.57226562 20.6484375 29.67578125 C20.10445313 28.79277344 19.56046875 27.90976562 19 27 C18.43539063 26.10667969 17.87078125 25.21335937 17.2890625 24.29296875 C16 22 16 22 16 20 C12.04 20 8.08 20 4 20 C4 25.61 4 31.22 4 37 C2.68 37 1.36 37 0 37 C0 24.79 0 12.58 0 0 Z " fill="#040707" transform="translate(259,685)"/>
<path d="M0 0 C10.23 0 20.46 0 31 0 C31 1.32 31 2.64 31 4 C26.71 4 22.42 4 18 4 C18 14.89 18 25.78 18 37 C16.68 37 15.36 37 14 37 C14 26.11 14 15.22 14 4 C9.38 4 4.76 4 0 4 C0 2.68 0 1.36 0 0 Z " fill="#040707" transform="translate(329,685)"/>
<path d="M0 0 C1.32 0 2.64 0 4 0 C4 12.21 4 24.42 4 37 C2.68 37 1.36 37 0 37 C0 24.79 0 12.58 0 0 Z " fill="#040707" transform="translate(369,685)"/>
</svg>
